<svg version="1.1" xmlns="http://www.w3.org/2000/svg" xmlns:xlink="http://www.w3.org/1999/xlink" width="20px" height="20px" viewBox="0,0,256,256"><g fill="#115498" fill-rule="nonzero" stroke="none" stroke-width="1" stroke-linecap="butt" stroke-linejoin="miter" stroke-miterlimit="10" stroke-dasharray="" stroke-dashoffset="0" font-family="none" font-weight="none" font-size="none" text-anchor="none" style="mix-blend-mode: normal"><g transform="scale(9.84615,9.84615)"><path d="M7,0c-0.55078,0 -1,0.44922 -1,1v3c0,0.55078 0.44922,1 1,1c0.55078,0 1,-0.44922 1,-1v-3c0,-0.55078 -0.44922,-1 -1,-1zM19,0c-0.55078,0 -1,0.44922 -1,1v3c0,0.55078 0.44922,1 1,1c0.55078,0 1,-0.44922 1,-1v-3c0,-0.55078 -0.44922,-1 -1,-1zM3,2c-1.65625,0 -3,1.34375 -3,3v18c0,1.65625 1.34375,3 3,3h20c1.65625,0 3,-1.34375 3,-3v-18c0,-1.65625 -1.34375,-3 -3,-3h-2v2c0,1.10156 -0.89453,2 -2,2c-1.10547,0 -2,-0.89844 -2,-2v-2h-8v2c0,1.10156 -0.89453,2 -2,2c-1.10547,0 -2,-0.89844 -2,-2v-2zM2,9h22v14c0,0.55078 -0.44922,1 -1,1h-20c-0.55078,0 -1,-0.44922 -1,-1zM4.34375,11c-0.21484,0.07031 -0.35547,0.27344 -0.34375,0.5v2.71875c-0.11328,0.17188 -0.11328,0.39063 0,0.5625v3.5c-0.06641,0.13672 -0.06641,0.30078 0,0.4375v2.78125c0,0.27734 0.22266,0.5 0.5,0.5h17c0.27734,0 0.5,-0.22266 0.5,-0.5v-2.875c0.01563,-0.07031 0.01563,-0.14844 0,-0.21875v-3.78125c0.01563,-0.07031 0.01563,-0.14844 0,-0.21875v-2.90625c0,-0.27734 -0.22266,-0.5 -0.5,-0.5h-17c-0.03125,-0.00391 -0.0625,-0.00391 -0.09375,0c-0.01953,0 -0.04297,0 -0.0625,0zM5,12h3v1.09375c-0.43359,0.14844 -0.75781,0.47266 -0.90625,0.90625h-2.09375zM9,12h4v1h-4zM14,12h3v2h-2.09375c-0.14844,-0.43359 -0.47266,-0.75781 -0.90625,-0.90625zM18,12h3v2h-3zM5,15h2v3h-2zM9,15h4v3h-4zM15,15h2v3h-2zM18,15h3v3h-3zM5,19h2.09375c0.14844,0.43359 0.47266,0.75781 0.90625,0.90625v1.09375h-3zM14.90625,19h2.09375v2h-3v-1.09375c0.43359,-0.14844 0.75781,-0.47266 0.90625,-0.90625zM18,19h3v2h-3zM9,20h4v1h-4z"></path></g></g></svg>